<?xml version="1.0" encoding="utf-8"?>
<!-- Generator: Adobe Illustrator 19.1.0, SVG Export Plug-In . SVG Version: 6.00 Build 0)  -->
<svg version="1.1" id="Layer_1" xmlns="http://www.w3.org/2000/svg" xmlns:xlink="http://www.w3.org/1999/xlink" x="0px" y="0px"
	 viewBox="-275 506 88 125" style="enable-background:new -275 506 88 125;" xml:space="preserve">
<path d="M-275,538v59.9c0,4.5,3.6,8.1,8,8.1h72c4.4,0,8-3.6,8-8.1V538H-275z M-253,600h-16v-16h16V600z M-253,580h-16v-16h16V580z
	 M-253,560h-16v-16h16V560z M-233,600h-16v-16h16V600z M-233,580h-16v-16h16V580z M-233,560h-16v-16h16V560z M-213,600h-16v-16h16
	V600z M-213,580h-16v-16h16V580z M-213,560h-16v-16h16V560z M-193,600h-16v-16h16V600z M-193,580h-16v-16h16V580z M-193,560h-16v-16
	h16V560z"/>
<path d="M-195,518h-13v-9c0-1.7-1.3-3-3-3c-1.7,0-3,1.3-3,3v9h-34v-9c0-1.7-1.3-3-3-3c-1.7,0-3,1.3-3,3v9h-13c-4.4,0-8,3.6-8,8.1
	v6.9l0,0v1h88v-1l0,0v-6.9C-187,521.6-190.6,518-195,518z M-251,532c-3.3,0-6-2.7-6-6c0-2.2,1.2-4.2,3-5.2v5.2c0,1.7,1.3,3,3,3
	c1.7,0,3-1.3,3-3v-5.2c1.8,1,3,3,3,5.2C-245,529.3-247.7,532-251,532z M-211,532c-3.3,0-6-2.7-6-6c0-2.2,1.2-4.2,3-5.2v5.2
	c0,1.7,1.3,3,3,3c1.7,0,3-1.3,3-3v-5.2c1.8,1,3,3,3,5.2C-205,529.3-207.7,532-211,532z"/>
</svg>
