<?xml version="1.0" encoding="utf-8"?>
<!-- Generator: Adobe Illustrator 19.1.0, SVG Export Plug-In . SVG Version: 6.00 Build 0)  -->
<svg version="1.1" id="Layer_1" xmlns="http://www.w3.org/2000/svg" xmlns:xlink="http://www.w3.org/1999/xlink" x="0px" y="0px"
	 viewBox="-269 506 100 125" style="enable-background:new -269 506 100 125;" xml:space="preserve">
<g>
	<g>
		<g>
			<path d="M-218.8,509.9c5,0,9,4,9,9c0,5-4,9-9,9c-5,0-9-4-9-9C-227.7,513.9-223.7,509.9-218.8,509.9z"/>
			<path d="M-232.2,549.2v-7h2.8v7h21.3l0-7h2.8v7h7v-7.6c0-6-3.5-11.8-10.5-11.8l-20.2,0c-6.4,0-10.4,5.2-10.4,11.7v7.8H-232.2z"/>
		</g>
	</g>
	<g>
		<path d="M-268.9,552.5v10.1h9.6v38.2h81v-38.2h9.2v-10.1H-268.9z"/>
	</g>
</g>
</svg>
