<?xml version="1.0" encoding="utf-8"?>
<!-- Generator: Adobe Illustrator 19.1.0, SVG Export Plug-In . SVG Version: 6.00 Build 0)  -->
<svg version="1.1" id="Layer_1" xmlns="http://www.w3.org/2000/svg" xmlns:xlink="http://www.w3.org/1999/xlink" x="0px" y="0px"
	 viewBox="-957 265 64 80" style="enable-background:new -957 265 64 80;" xml:space="preserve">
<g>
	<path d="M-957,278.9v36.2h64v-36.2H-957z M-896.4,312.1h-57.2v-30.3h57.2V312.1z"/>
	<path d="M-898.6,284h-52.8V310h52.8L-898.6,284L-898.6,284z M-948.8,289h26.7v2.2h-26.7V289z M-928.1,305h-20.6v-2.2h20.6
		C-928.1,302.8-928.1,305-928.1,305z M-901.2,300.4h-47.5v-2.2h47.5L-901.2,300.4L-901.2,300.4z M-901.2,295.8h-47.5v-2.2h47.5
		L-901.2,295.8L-901.2,295.8z M-901.2,291.2h-9.9V289h9.9V291.2z"/>
</g>
</svg>
