<?xml version="1.0" encoding="utf-8"?>
<!-- Generator: Adobe Illustrator 19.1.0, SVG Export Plug-In . SVG Version: 6.00 Build 0)  -->
<svg version="1.1" id="Layer_1" xmlns="http://www.w3.org/2000/svg" xmlns:xlink="http://www.w3.org/1999/xlink" x="0px" y="0px"
	 viewBox="-416 198 109 104" style="enable-background:new -416 198 109 104;" xml:space="preserve">
<path d="M-344.7,206.7v8.7l13.4,12.6v-21.3C-331.3,206.7-344.7,206.7-344.7,206.7z M-312,250l-50-46.7l-50,46.7h10v43.3
	c0,3.3,0,3.3,3.3,3.3h73.3c3.3,0,3.3,0,3.3-3.3V250H-312z M-347.7,246c2.4,0,2.4,0,2.4,2.4v9.5c0,2.4,0,2.4-2.4,2.4h-9.5
	c-2.4,0-2.4,0-2.4-2.4v-9.5c0-2.4,0-2.4,2.4-2.4C-357.2,246-347.7,246-347.7,246z M-347.7,265.1c2.4,0,2.4,0,2.4,2.4v9.5
	c0,2.4,0,2.4-2.4,2.4h-9.5c-2.4,0-2.4,0-2.4-2.4v-9.5c0-2.4,0-2.4,2.4-2.4H-347.7z M-366.8,246c2.4,0,2.4,0,2.4,2.4v9.5
	c0,2.4,0,2.4-2.4,2.4h-9.5c-2.4,0-2.4,0-2.4-2.4v-9.5c0-2.4,0-2.4,2.4-2.4C-376.3,246-366.8,246-366.8,246z M-366.8,265.1
	c2.4,0,2.4,0,2.4,2.4v9.5c0,2.4,0,2.4-2.4,2.4h-9.5c-2.4,0-2.4,0-2.4-2.4v-9.5c0-2.4,0-2.4,2.4-2.4H-366.8z"/>
</svg>
