<svg xmlns="http://www.w3.org/2000/svg" xmlns:xlink="http://www.w3.org/1999/xlink" version="1.1" x="0px" y="0px" viewBox="0 0 90 90" enable-background="new 0 0 90 90" xml:space="preserve"><g><path d="M29,34h32c1.1,0,2-0.9,2-2c0-1.1-0.9-2-2-2H29c-1.1,0-2,0.9-2,2C27,33.1,27.9,34,29,34z"></path><path d="M61,43H29c-1.1,0-2,0.9-2,2c0,1.1,0.9,2,2,2h32c1.1,0,2-0.9,2-2C63,43.9,62.1,43,61,43z"></path><path d="M61,56H29c-1.1,0-2,0.9-2,2c0,1.1,0.9,2,2,2h32c1.1,0,2-0.9,2-2C63,56.9,62.1,56,61,56z"></path></g></svg>