<?xml version="1.0" encoding="utf-8"?>
<!-- Generator: Adobe Illustrator 19.1.0, SVG Export Plug-In . SVG Version: 6.00 Build 0)  -->
<svg version="1.1" id="Layer_1" xmlns="http://www.w3.org/2000/svg" xmlns:xlink="http://www.w3.org/1999/xlink" x="0px" y="0px"
	 viewBox="-295 539 48 60" style="enable-background:new -295 539 48 60;" xml:space="preserve">
<g>
	<path d="M-267.8,552.9c0-7.4-6-13.4-13.4-13.4c-7.4,0-13.3,6-13.3,13.4c0,7.4,6,13.4,13.4,13.4S-267.8,560.3-267.8,552.9z
		 M-281.8,550.7c0.2,0.3,0.6,0.7,1.2,1c1.3,0.6,2.3,1.3,2.9,1.9c0.6,0.7,0.9,1.6,0.9,2.9c0,1.2-0.3,2.1-0.9,2.8
		c-0.6,0.7-1.5,1.1-2.5,1.3v2.1h-1.5v-2.1c-1.1-0.1-2-0.6-2.7-1.4c-0.7-0.8-1.1-1.9-1.1-3.5h2.9c0,0.9,0.1,1.6,0.4,2
		c0.3,0.4,0.7,0.6,1.2,0.6c0.4,0,0.8-0.2,1-0.5s0.3-0.8,0.3-1.3c0-0.6-0.1-1-0.3-1.4c-0.2-0.3-0.6-0.7-1.2-1
		c-1.3-0.6-2.3-1.2-2.9-1.9s-0.9-1.6-0.9-2.9c0-1.1,0.3-2.1,1-2.8c0.6-0.7,1.5-1.2,2.6-1.3v-2.1h1.5v2.2c1,0.2,1.8,0.7,2.4,1.5
		s0.9,1.9,0.9,3.2h-2.9c0-0.8-0.1-1.4-0.4-1.9c-0.2-0.4-0.6-0.6-0.9-0.6c-0.4,0-0.7,0.2-0.9,0.5c-0.2,0.3-0.3,0.8-0.3,1.3
		C-282.1,550-282,550.4-281.8,550.7z"/>
	<path d="M-263.6,567.1l2.2,5.2c-6.7,5-18.2-1.3-18.2-1.3c10.2,16.6,22.6,10.6,22.6,10.6l2.3,4.9l7.1-15.3L-263.6,567.1z"/>
</g>
</svg>
