<?xml version="1.0" encoding="utf-8"?>
<!-- Generator: Adobe Illustrator 19.1.0, SVG Export Plug-In . SVG Version: 6.00 Build 0)  -->
<svg version="1.1" id="Layer_1" xmlns="http://www.w3.org/2000/svg" xmlns:xlink="http://www.w3.org/1999/xlink" x="0px" y="0px"
	 viewBox="-269 506 100 125" style="enable-background:new -269 506 100 125;" xml:space="preserve">
<g>
	<path d="M-170,563.5v-16.2l-11.1-3.3c-0.7-2.4-1.6-4.7-2.7-6.9l5.7-10.3l-11.5-11.5l-10.3,5.7c-2.2-1.2-4.5-2-6.9-2.7l-3.3-11.2
		h-16.2l-3.3,11.2c-2.4,0.7-4.7,1.6-6.9,2.8l-10.3-5.7l-11.5,11.5l5.7,10.3c-1.2,2.2-2.7,4.5-3.4,6.9l-11.9,3.3v16.2l11.9,3.3
		c0.7,2.4,2,4.7,3.1,6.9l-5.5,10.3l11.6,11.5l10.4-5.7c2.2,1.2,4.5,2.6,6.9,3.4l3.3,11.8h16.2l3.3-11.8c2.4-0.7,4.7-1.9,6.9-3.1
		l10.3,5.5l11.5-11.5l-5.7-10.4c1.2-2.2,1.9-4.5,2.6-6.9L-170,563.5z M-218.2,585.6c-16.7,0-30.2-13.5-30.2-30.2
		c0-16.7,13.5-30.2,30.2-30.2c16.7,0,30.2,13.5,30.2,30.2S-201.5,585.6-218.2,585.6z"/>
	<path d="M-218.2,532c-12.9,0-23.4,10.5-23.4,23.4c0,12.9,10.5,23.4,23.4,23.4c12.9,0,23.4-10.5,23.4-23.4
		C-194.8,542.4-205.3,532-218.2,532z M-214,568.1c0,2.1-2.4,3.7-5,3.7s-5-1.7-5-3.7v-11.3c0-2.1,2.4-3.7,5-3.7s5,1.7,5,3.7V568.1z
		 M-214,545c0,2.1-2.4,3.7-5,3.7s-5-1.7-5-3.7v-2.7c0-2.1,2.4-3.7,5-3.7s5,1.7,5,3.7V545z"/>
</g>
</svg>
